# xmcd
#
# Track frame offsets:
#	150
#	17910
#	35050
#	56571
#	79674
#	94690
#	117409
#	134222
#	161569
#	176351
#	196508
#
# Disc length: 2930 seconds
#
# Revision: 1
# Processed by: cddbd v1.5PL3 Copyright (c) Steve Scherf et al.
# Submitted via: EasyCDDAExtractor 6.5.2.1
#
DISCID=8f0b700b
DTITLE=Mane St. - At This Stage Of Our Life
DYEAR=2000
DGENRE=Country
TTITLE0=Alone Together
TTITLE1=Back In My Arms
TTITLE2=The Only One For Me
TTITLE3=Mane St. Blues
TTITLE4=You Win Again
TTITLE5=Orange Blossom Special
TTITLE6=Brown Eyed Girl
TTITLE7=The South's Gonna Do It again
TTITLE8=Long Cool Woman
TTITLE9=Mustang Sally
TTITLE10=Maggie May
EXTD=
EXTT0=
EXTT1=
EXTT2=
EXTT3=
EXTT4=
EXTT5=
EXTT6=
EXTT7=
EXTT8=
EXTT9=
EXTT10=
PLAYORDER=
